<?xml version="1.0" encoding="utf-8"?>
<!-- Generator: Adobe Illustrator 23.1.1, SVG Export Plug-In . SVG Version: 6.00 Build 0)  -->
<svg version="1.1" id="Layer_1" xmlns="http://www.w3.org/2000/svg" xmlns:xlink="http://www.w3.org/1999/xlink" x="0px" y="0px"
	 viewBox="0 0 1440 576" style="enable-background:new 0 0 1440 576;" xml:space="preserve">
<style type="text/css">
	.st0{fill:#34D5D5;stroke:#34D5D5;stroke-width:1.51;}
	.st1{fill:#33D4D4;stroke:#33D4D4;stroke-width:1.51;}
	.st2{fill:#39D6D6;stroke:#39D6D6;stroke-width:1.51;}
	.st3{fill:#2DBDC5;stroke:#2DBDC5;stroke-width:1.51;}
	.st4{fill:#2EC4CA;stroke:#2EC4CA;stroke-width:1.51;}
	.st5{fill:#2FC1C9;stroke:#2FC1C9;stroke-width:1.51;}
	.st6{fill:#28B1BD;stroke:#28B1BD;stroke-width:1.51;}
	.st7{fill:#34CDD2;stroke:#34CDD2;stroke-width:1.51;}
	.st8{fill:#39D0D4;stroke:#39D0D4;stroke-width:1.51;}
	.st9{fill:#2AB2BE;stroke:#2AB2BE;stroke-width:1.51;}
	.st10{fill:#2CB9C3;stroke:#2CB9C3;stroke-width:1.51;}
	.st11{fill:#3FD6D8;stroke:#3FD6D8;stroke-width:1.51;}
	.st12{fill:#27ADBA;stroke:#27ADBA;stroke-width:1.51;}
	.st13{fill:#2EB5C4;stroke:#2EB5C4;stroke-width:1.51;}
	.st14{fill:#2EB8C5;}
	.st15{fill:#32BFCC;stroke:#32BFCC;stroke-width:1.51;}
	.st16{fill:#3FD0D6;stroke:#3FD0D6;stroke-width:1.51;}
	.st17{fill:#2EB1C4;stroke:#2EB1C4;stroke-width:1.51;}
	.st18{fill:#37C2CF;stroke:#37C2CF;stroke-width:1.51;}
	.st19{fill:#35BCCB;stroke:#35BCCB;stroke-width:1.51;}
</style>
<polygon class="st0" points="825,-458 1171,73 1337,-240 "/>
<polygon class="st1" points="825,-458 887,187 1171,73 "/>
<polygon class="st2" points="825,-458 563,-239 887,187 "/>
<polygon class="st3" points="887,187 1213,532 1171,73 "/>
<polygon class="st4" points="1171,73 1624,23 1337,-240 "/>
<polygon class="st5" points="484,228 770,312 887,187 "/>
<polygon class="st6" points="1708,398 1624,23 1171,73 "/>
<polygon class="st7" points="563,-239 484,228 887,187 "/>
<polygon class="st8" points="563,-239 228,103 484,228 "/>
<polygon class="st9" points="481,577 1214,533 768.8,312 "/>
<polygon class="st10" points="770,312 1212,531 887,187 "/>
<polygon class="st11" points="157,-202 228,103 563,-239 "/>
<polygon class="st12" points="1213,533 1714,396 1170,74 "/>
<polygon class="st13" points="258,480.1 479,577 481,228 "/>
<polygon class="st14" points="480.1,227 479,578 770,312 "/>
<polygon class="st15" points="228,103 258,483 484,228 "/>
<polygon class="st16" points="157,-202 -161,114 228,103 "/>
<polygon class="st17" points="247,476 -430,394 473,576 "/>
<polygon class="st18" points="-161,114 311,541.5 228,103 "/>
<polygon class="st19" points="-131,132 -400,424.9 481,576 "/>
</svg>
