<svg viewBox="0 0 1440 576" xmlns="http://www.w3.org/2000/svg" xmlns:xlink="http://www.w3.org/1999/xlink"><defs><path id="a" d="m0 0h1440v470.3355l-230 62.6645-729 43-481-82z"/><mask id="b" fill="#fff"><use fill="none" xlink:href="#a"/></mask></defs><g fill="none" fill-rule="nonzero"><use fill="#d8d8d8" xlink:href="#a"/><g mask="url(#b)"><g stroke-width="1.51"><path d="m1767 531-346-531-166 313z" fill="#78bfd8" stroke="#78bfd8" transform="matrix(-1 0 0 -1 2592 73)"/><path d="m1601 645-62-645-284 114z" fill="#76bdd6" stroke="#76bdd6" transform="matrix(-1 0 0 -1 2426 187)"/><path d="m1055 645 262-219-324-426z" fill="#80c3db" stroke="#80c3db" transform="matrix(-1 0 0 -1 1880 187)"/><path d="m1643 876-326-345 42 459z" fill="#5fa7c7" stroke="#5fa7c7" transform="matrix(-1 0 0 -1 2530 1063)"/><path d="m2054 218-453 50 287 263z" fill="#66aecc" stroke="#66aecc" transform="matrix(-1 0 0 -1 3225 291)"/><path d="m1317 729-286-84-117 125z" fill="#6badcb" stroke="#6badcb" transform="matrix(-1 0 0 -1 1801 957)"/><path d="m1601 481 84 375 453-50z" fill="#539bbf" stroke="#539bbf" transform="matrix(-1 0 0 -1 3309 879)"/><path d="m1238 686 79-467-403 41z" fill="#77b9d4" stroke="#77b9d4" transform="matrix(-1 0 0 -1 1801 447)"/><path d="m658 686 335-342-256-125z" fill="#7ebdd7" stroke="#7ebdd7" transform="matrix(-1 0 0 -1 1221 447)"/><path d="m1644 770-733 44 445.21477 221z" fill="#599dc0" stroke="#599dc0" transform="matrix(-1 0 0 -1 2125 1347)"/><path d="m1642 864-442-219 325 344z" fill="#5ea3c5" stroke="#5ea3c5" transform="matrix(-1 0 0 -1 2412 1176)"/><path d="m993 524-71-305-335 342z" fill="#8ac7de" stroke="#8ac7de" transform="matrix(-1 0 0 -1 1150 322)"/><path d="m2101 532-501 137 544 322z" fill="#4e96bc" stroke="#4e96bc" transform="matrix(-1 0 0 -1 3314 1065)"/><path d="m911 782.865169-221-96.865169-2 349z" fill="#68a4c6" stroke="#68a4c6" transform="matrix(-1 0 0 -1 1169 1263)"/></g><path d="m1198.91638 1036 1.08362-351-291 266z" fill="#67a6c7" transform="matrix(-1 0 0 -1 1679 1263)"/><path d="m914 941-30-380-226 255z" fill="#73afce" stroke="#73afce" stroke-width="1.51" transform="matrix(-1 0 0 -1 1142 1044)"/><path d="m340 572 318-316-389 11z" fill="#88c2db" stroke="#88c2db" stroke-width="1.51" transform="matrix(-1 0 0 -1 497 370)"/><path d="m226 952 677 82-903-182z" fill="#6ca3c6" stroke="#6ca3c6" stroke-width="1.51" transform="matrix(-1 0 0 -1 473 1428)"/><path d="m642 1034 269-292.899729-881-151.100271z" fill="#77aecd" stroke="#77aecd" stroke-width="1.51" transform="matrix(-1 0 0 -1 511 1166)"/><path d="m741 988.5-472-427.5 83 438.5z" fill="#7ab3d1" stroke="#7ab3d1" stroke-width="1.51" transform="matrix(-1 0 0 -1 580 1102.5)"/></g></g></svg>
