<svg height="576" viewBox="0 0 1440 576" width="1440" xmlns="http://www.w3.org/2000/svg" xmlns:xlink="http://www.w3.org/1999/xlink"><defs><path id="a" d="m0 0h1440v470.3355l-230 62.6645-729 43-481-82z"/><mask id="b" fill="#fff"><use fill="none" xlink:href="#a"/></mask></defs><g fill="none" fill-rule="nonzero"><use fill="#d8d8d8" xlink:href="#a"/><g mask="url(#b)" stroke-width="1.51"><path d="m1767 531-346-531-166 313z" fill="#ffb367" stroke="#ffb367" transform="matrix(-1 0 0 -1 2592 73)"/><path d="m1601 645-62-645-284 114z" fill="#ffad5b" stroke="#ffad5b" transform="matrix(-1 0 0 -1 2426 187)"/><path d="m1055 645 262-219-324-426z" fill="#ffb367" stroke="#ffb367" transform="matrix(-1 0 0 -1 1880 187)"/><path d="m1643 876-326-345 42 459z" fill="#ffa851" stroke="#ffa851" transform="matrix(-1 0 0 -1 2530 1063)"/><path d="m2054 218-453 50 287 263z" fill="#ffad5b" stroke="#ffad5b" transform="matrix(-1 0 0 -1 3225 291)"/><path d="m1317 729-286-84-117 125z" fill="#ffad5b" stroke="#ffad5b" transform="matrix(-1 0 0 -1 1801 957)"/><path d="m1601 481 84 375 453-50z" fill="#ff9e3e" stroke="#ff9e3e" transform="matrix(-1 0 0 -1 3309 879)"/><path d="m1238 686 79-467-403 41z" fill="#ffa851" stroke="#ffa851" transform="matrix(-1 0 0 -1 1801 447)"/><path d="m658 686 335-342-256-125z" fill="#ffad5b" stroke="#ffad5b" transform="matrix(-1 0 0 -1 1221 447)"/><path d="m1644 770-733 44 445.21477 221z" fill="#fb9836" stroke="#ff9226" transform="matrix(-1 0 0 -1 2125 1347)"/><path d="m1642 864-442-219 325 344z" fill="#ff9e3e" stroke="#ff9e3e" transform="matrix(-1 0 0 -1 2412 1176)"/><path d="m993 524-71-305-335 342z" fill="#ffb367" stroke="#ffb367" transform="matrix(-1 0 0 -1 1150 322)"/><path d="m2101 532-501 137 544 322z" fill="#fb9836" stroke="#ff9226" transform="matrix(-1 0 0 -1 3314 1065)"/><path d="m911 782.865169-221-96.865169-2 349z" fill="#fb9836" stroke="#ff9226" transform="matrix(-1 0 0 -1 1169 1263)"/><path d="m1198.91638 1036 1.08362-351-291 266z" fill="#ff9e3e" stroke="#ff9e3e" transform="matrix(-1 0 0 -1 1679 1263)"/><path d="m914 941-30-380-226 255z" fill="#ffa042" stroke="#ffa851" transform="matrix(-1 0 0 -1 1142 1044)"/><path d="m340 572 318-316-389 11z" fill="#ffa851" stroke="#ffa851" transform="matrix(-1 0 0 -1 497 370)"/><path d="m226 952 677 82-903-182z" fill="#6ca3c6" stroke="#6ca3c6" transform="matrix(-1 0 0 -1 473 1428)"/><path d="m642 1034 269-292.899729-881-151.100271z" fill="#ffa851" stroke="#ffa851" transform="matrix(-1 0 0 -1 511 1166)"/><path d="m741 988.5-472-427.5 83 438.5z" fill="#ffad5b" stroke="#ffad5b" transform="matrix(-1 0 0 -1 580 1102.5)"/></g></g></svg>