<svg viewBox="0 0 351.27 129.83" xmlns="http://www.w3.org/2000/svg"><path d="m160.12 60.79a9.08 9.08 0 0 0 2.3-.2 1.17 1.17 0 0 0 .85-.7 5.75 5.75 0 0 0 .19-1.81v-23.28a5.31 5.31 0 0 0 -.22-1.82 1.25 1.25 0 0 0 -.89-.75 9 9 0 0 0 -2.23-.19v-1.6h14.88q6.48 0 9.54 2a6.56 6.56 0 0 1 3 5.83 6.87 6.87 0 0 1 -2.28 5.47 11.65 11.65 0 0 1 -5.95 2.57v.09a7.58 7.58 0 0 1 4.28 1.87 9.44 9.44 0 0 1 2 4.67l.58 2.71a18.18 18.18 0 0 0 .87 3.12 3.07 3.07 0 0 0 1.24 1.52 4.36 4.36 0 0 0 2.29.49v1.6h-9.53a4.81 4.81 0 0 1 -1.31-1.75 12.44 12.44 0 0 1 -1-2.71l-1.45-6.68a6.34 6.34 0 0 0 -1.16-2.76 3 3 0 0 0 -2.42-.92h-2v10.52a5.08 5.08 0 0 0 .22 1.79 1.21 1.21 0 0 0 .84.72 7.79 7.79 0 0 0 2.08.2v1.6h-14.72zm13-15.15c2.16 0 3.75-.53 4.75-1.6s1.5-2.79 1.5-5.18a7.61 7.61 0 0 0 -1.38-5 5.52 5.52 0 0 0 -4.43-1.62 2.26 2.26 0 0 0 -1.45.32 1.93 1.93 0 0 0 -.34 1.38v11.7z"/><path d="m213.26 51.11h-14.42q.16 4.89 1.38 6.89a4.31 4.31 0 0 0 3.95 2q4.54 0 6.63-4.55l1.74.82a15.94 15.94 0 0 1 -2 3.36 8.51 8.51 0 0 1 -3.21 2.4 13 13 0 0 1 -5.33.97q-5.52 0-8.38-3t-2.85-8.91c0-4 1-7 2.93-9s4.8-3 8.54-3q11 0 11 11.76zm-8.08-1.6a24 24 0 0 0 -.67-6.87 2.52 2.52 0 0 0 -2.47-2 2.58 2.58 0 0 0 -2.4 1.89q-.79 1.89-.8 7z"/><path d="m240 42q2.53 2.94 2.54 8.5 0 6-3.22 9.24t-9 3.25a12.51 12.51 0 0 1 -3.85-.56 17.6 17.6 0 0 1 -3.47-1.64l-1.59 1.6h-2.67v-28.95a2.2 2.2 0 0 0 -.26-1.28 1.51 1.51 0 0 0 -1.14-.31h-1.69v-1.65l8.12-1.2h2.66v12.43a10.05 10.05 0 0 1 2.85-1.77 9.65 9.65 0 0 1 3.58-.6 8.91 8.91 0 0 1 7.14 2.94zm-7.36 18.4a6.41 6.41 0 0 0 1.38-3.2 33 33 0 0 0 .43-6.07 19.66 19.66 0 0 0 -1-7.12 3.45 3.45 0 0 0 -3.29-2.47 5.24 5.24 0 0 0 -3.73 2.09v16.14a5.37 5.37 0 0 0 3.68 1.6 3.35 3.35 0 0 0 2.54-.99z"/><path d="m270.71 60.3a1 1 0 0 0 .73.39 11.44 11.44 0 0 0 1.89.1v1.6h-10.26v-3h-.07a11.45 11.45 0 0 1 -3.15 2.61 9.38 9.38 0 0 1 -4.58 1q-7.27 0-7.27-8v-11.15a2.08 2.08 0 0 0 -.27-1.28 1.5 1.5 0 0 0 -1.14-.32h-1.69v-1.6l8.1-1.26h2.66v15.61a7.22 7.22 0 0 0 .8 3.92 2.67 2.67 0 0 0 2.35 1.16 3.64 3.64 0 0 0 1.91-.51 12.08 12.08 0 0 0 2.1-1.76v-14a2.17 2.17 0 0 0 -.26-1.28 1.5 1.5 0 0 0 -1.14-.32h-1.69v-1.6l8.13-1.26h2.66v19.9a1.91 1.91 0 0 0 .19 1.05z"/><path d="m282.45 62.75a20.25 20.25 0 0 1 -2-.56 5.6 5.6 0 0 0 -1.55-.34 1.67 1.67 0 0 0 -1.21.54h-1.3l-.44-7.85h1.74a8.08 8.08 0 0 0 2.25 5 6.63 6.63 0 0 0 4.77 1.79 6.26 6.26 0 0 0 3.41-.87 3 3 0 0 0 1.38-2.71 2.67 2.67 0 0 0 -.82-2 6.28 6.28 0 0 0 -2.68-1.25l-3.68-.92a10 10 0 0 1 -5-2.59 6.12 6.12 0 0 1 -1.57-4.29 6.92 6.92 0 0 1 2.47-5.54 10 10 0 0 1 6.72-2.1 10.67 10.67 0 0 1 2.18.17 19.39 19.39 0 0 1 1.89.5 4.36 4.36 0 0 0 1.4.34 1 1 0 0 0 .73-.22 1.5 1.5 0 0 0 .39-.65h1.3l.34 7.07h-1.6c-1.06-3.78-3.13-5.67-6.19-5.67a4.83 4.83 0 0 0 -3.05.9 2.73 2.73 0 0 0 -1.16 2.25 2.22 2.22 0 0 0 1.13 2.06 13.4 13.4 0 0 0 3.13 1.19l2.76.73a10.58 10.58 0 0 1 5.15 2.64 6.15 6.15 0 0 1 1.52 4.33 7.62 7.62 0 0 1 -2.56 6q-2.57 2.3-7.3 2.3a12.53 12.53 0 0 1 -2.55-.25z"/><path d="m175.1 97.53a8.86 8.86 0 0 1 -5 1.46 9.56 9.56 0 0 1 -5-1.27 8.66 8.66 0 0 1 -3.28-3.64 14 14 0 0 1 0-11.1 8.57 8.57 0 0 1 3.28-3.65 10.4 10.4 0 0 1 9.85-.08 7.34 7.34 0 0 1 3 3.54l-2.44 1.14a5.48 5.48 0 0 0 -2-2.68 5.7 5.7 0 0 0 -3.29-.89 6.82 6.82 0 0 0 -3.67 1 6.42 6.42 0 0 0 -2.43 2.82 10.17 10.17 0 0 0 -.86 4.37 9 9 0 0 0 1.83 6 6.78 6.78 0 0 0 8.58 1.13 5.75 5.75 0 0 0 2.15-3.08l2.47.92a8.17 8.17 0 0 1 -3.19 4.01z"/><path d="m196.93 79.33a8.45 8.45 0 0 1 3.28 3.67 13.9 13.9 0 0 1 0 11.12 8.53 8.53 0 0 1 -3.28 3.64 10.44 10.44 0 0 1 -10 0 8.59 8.59 0 0 1 -3.28-3.64 14 14 0 0 1 0-11.12 8.51 8.51 0 0 1 3.35-3.67 10.37 10.37 0 0 1 10 0zm-10 3.2a9 9 0 0 0 -1.84 6 9 9 0 0 0 1.84 6 6.86 6.86 0 0 0 10 0 9 9 0 0 0 1.83-6 9 9 0 0 0 -1.83-6 6.86 6.86 0 0 0 -10 0z"/><path d="m227.21 98.68h-2.34v-12.78l.27-5.36-6.68 18.14h-2.09l-6.69-18.14.28 5.36v12.78h-2.34v-20.32h3.79l4.46 12.35 1.54 5.08h.06l1.53-5.05 4.44-12.38h3.79z"/><path d="m254.28 98.68h-2.34v-12.78l.28-5.36-6.72 18.14h-2.09l-6.69-18.14.28 5.36v12.78h-2.34v-20.32h3.79l4.47 12.35 1.54 5.08h.06l1.57-5.05 4.43-12.38h3.79z"/><path d="m277.44 91.11c0 2.61-.68 4.57-2.05 5.9a9.82 9.82 0 0 1 -11.85 0q-2.06-2-2.05-5.88v-12.77h2.51v12.13a6.92 6.92 0 0 0 1.34 4.7 6.59 6.59 0 0 0 8.35 0 6.92 6.92 0 0 0 1.34-4.7v-12.13h2.46z"/><path d="m300.6 98.68h-3.05l-8.5-13.61-2.15-4 .12 3.26v14.35h-2.34v-20.32h3.05l8.47 13.55 2.15 4.09-.13-3.26v-14.38h2.34z"/><path d="m310.49 98.68h-2.49v-20.32h2.46z"/><path d="m332.2 80.67h-7.08v18h-2.47v-18h-7.08v-2.31h16.63z"/><path d="m344 90.74v7.94h-2.46v-7.94l-7.27-12.38h2.92l5.58 9.85 5.57-9.85h2.93z"/><path d="m110.78 110.86a64.92 64.92 0 1 0 -91.78-.08 64.91 64.91 0 0 0 91.78.08z" fill="#f7b081"/><path d="m19.06 19a64.92 64.92 0 1 0 91.72 91.89" fill="#f4a269"/><path d="m103.57 32.87v64.82l-35.83-64.82z" fill="#ef863f"/><path d="m103.58 32.87-16.98.02 16.98 64.76z" fill="#cd4b18"/><path d="m31.72 103.18h64.82l-64.82-35.82z" fill="#cd4b18"/><path d="m31.72 103.2.02-16.99 64.76 16.99z" fill="#ef863f"/><path d="m26.68 27.4v28.99l68.31 39.31-39.32-68.3z" fill="#ef863f"/><path d="m95 95.72-39.31-68.3h-28.99" fill="#cd4b18"/></svg>