<svg xmlns="http://www.w3.org/2000/svg" viewBox="0 0 646.92 126.62"><defs><style>.cls-1{fill:#b5dceb;}.cls-2{fill:#a5d5e9;}.cls-3{fill:#74bed7;}.cls-4{fill:#069;}</style></defs><title>rebus_foundation_horizontal</title><g id="Layer_2" data-name="Layer 2"><g id="Layer_1-2" data-name="Layer 1"><path d="M152,80a11.63,11.63,0,0,0,3-.25,1.5,1.5,0,0,0,1.09-.9,7.36,7.36,0,0,0,.25-2.34V46.6a6.87,6.87,0,0,0-.28-2.33,1.61,1.61,0,0,0-1.15-1,11.88,11.88,0,0,0-2.86-.25V41h19.11q8.34,0,12.27,2.58a8.46,8.46,0,0,1,3.92,7.51,8.82,8.82,0,0,1-2.93,7,14.92,14.92,0,0,1-7.65,3.3v.13a9.68,9.68,0,0,1,5.51,2.39q1.71,1.78,2.58,6l.75,3.49a24.05,24.05,0,0,0,1.12,4,4,4,0,0,0,1.59,2,5.78,5.78,0,0,0,2.95.62v2H178.94a6,6,0,0,1-1.68-2.24A15.8,15.8,0,0,1,176,76.37l-1.87-8.6a8.16,8.16,0,0,0-1.49-3.55A3.88,3.88,0,0,0,169.54,63H167V76.55a6.92,6.92,0,0,0,.28,2.31,1.61,1.61,0,0,0,1.09.93A9.93,9.93,0,0,0,171,80v2H152Zm16.75-19.49q4.17,0,6.1-2c1.28-1.37,1.93-3.59,1.93-6.67q0-4.35-1.78-6.44t-5.69-2.09a2.92,2.92,0,0,0-1.87.41,2.5,2.5,0,0,0-.44,1.77V60.55Z"/><path d="M220.34,67.59H201.79q.18,6.28,1.77,8.84A5.54,5.54,0,0,0,208.64,79q5.85,0,8.53-5.85l2.24,1.06a21.23,21.23,0,0,1-2.55,4.32,10.92,10.92,0,0,1-4.14,3.09,16.54,16.54,0,0,1-6.88,1.24q-7.11,0-10.78-3.86t-3.67-11.46q0-7.65,3.77-11.55t11-3.89q14.19,0,14.19,15.13ZM210,65.53c0-4.19-.3-7.14-.88-8.84a3.23,3.23,0,0,0-3.17-2.55c-1.37,0-2.4.81-3.08,2.43s-1,4.6-1,9Z"/><path d="M254.74,55.85Q258,59.61,258,66.78q0,7.71-4.14,11.89t-11.55,4.17a16.26,16.26,0,0,1-4.95-.71A22.61,22.61,0,0,1,232.86,80l-2.06,2h-3.42V44.86a2.8,2.8,0,0,0-.34-1.65,1.94,1.94,0,0,0-1.47-.41h-2.18V40.69l10.46-1.56h3.43v16h.06A13.49,13.49,0,0,1,241,52.86a12.32,12.32,0,0,1,4.61-.78C249.52,52.08,252.57,53.34,254.74,55.85Zm-9.46,23.66a8.2,8.2,0,0,0,1.77-4.11,41.65,41.65,0,0,0,.57-7.81,25.07,25.07,0,0,0-1.31-9.16c-.87-2.11-2.29-3.17-4.24-3.17q-2.35,0-4.79,2.68V78.73A6.93,6.93,0,0,0,242,80.79,4.31,4.31,0,0,0,245.28,79.51Z"/><path d="M294.25,79.42a1.39,1.39,0,0,0,.93.5,16.47,16.47,0,0,0,2.43.12v2h-13.2V78.3h-.06a14.7,14.7,0,0,1-4.08,3.27,12.16,12.16,0,0,1-5.88,1.27q-9.4,0-9.4-10.21V58.25a2.71,2.71,0,0,0-.35-1.65,1.89,1.89,0,0,0-1.46-.41H261v-2l10.46-1.62h3.43V72.63q0,3.56,1,5a3.43,3.43,0,0,0,3,1.5,4.62,4.62,0,0,0,2.46-.66,15,15,0,0,0,2.71-2.27v-18a2.73,2.73,0,0,0-.34-1.65,1.93,1.93,0,0,0-1.46-.41h-2.18v-2l10.46-1.62H294V78.11A2.47,2.47,0,0,0,294.25,79.42Z"/><path d="M309.35,82.56a26.21,26.21,0,0,1-2.58-.71,7.06,7.06,0,0,0-2-.44,2.14,2.14,0,0,0-1.55.68h-1.68L301,72h2.24a10.3,10.3,0,0,0,2.89,6.47,8.48,8.48,0,0,0,6.14,2.31,8.16,8.16,0,0,0,4.39-1.12,3.84,3.84,0,0,0,1.77-3.49,3.43,3.43,0,0,0-1.06-2.62A8,8,0,0,0,313.86,72l-4.73-1.19a12.85,12.85,0,0,1-6.38-3.33,7.84,7.84,0,0,1-2-5.51,8.93,8.93,0,0,1,3.17-7.13c2.12-1.8,5-2.71,8.66-2.71a14.07,14.07,0,0,1,2.8.22c.7.15,1.51.36,2.43.65a5.83,5.83,0,0,0,1.8.44,1.35,1.35,0,0,0,.94-.28,2.1,2.1,0,0,0,.5-.84h1.68l.43,9.09h-2.05q-2.05-7.29-8-7.29a6.27,6.27,0,0,0-3.93,1.16,3.53,3.53,0,0,0-1.49,2.89,2.84,2.84,0,0,0,1.46,2.65,17.08,17.08,0,0,0,4,1.52l3.55.94q4.66,1.25,6.63,3.39a7.93,7.93,0,0,1,2,5.57,9.85,9.85,0,0,1-3.3,7.73q-3.3,2.92-9.4,2.92A15.46,15.46,0,0,1,309.35,82.56Z"/><path d="M349,54.78v9.94H362.9v3.5H349V82.09h-3.73V51.27h21.57v3.51Z"/><path d="M394.33,52.74a13,13,0,0,1,5,5.51,19,19,0,0,1,1.75,8.43,18.91,18.91,0,0,1-1.75,8.43,12.92,12.92,0,0,1-5,5.51,15.72,15.72,0,0,1-15.13,0,12.88,12.88,0,0,1-5-5.51,18.91,18.91,0,0,1-1.75-8.43,19,19,0,0,1,1.75-8.43,12.94,12.94,0,0,1,5-5.51,15.79,15.79,0,0,1,15.13,0ZM379.17,57.6c-1.85,2.2-2.78,5.22-2.78,9.08s.93,6.89,2.78,9.09a10.4,10.4,0,0,0,15.18,0q2.77-3.3,2.78-9.09c0-3.86-.93-6.88-2.78-9.08a10.4,10.4,0,0,0-15.18,0Z"/><path d="M434.3,70.61q0,5.92-3.11,8.94t-9,3q-5.88,0-9-3t-3.11-8.92V51.27h3.74v18.4c0,3.24.67,5.61,2,7.12s3.46,2.27,6.32,2.27,5-.76,6.33-2.27,2-3.88,2-7.12V51.27h3.74Z"/><path d="M469.42,82.09h-4.63L451.91,61.45l-3.27-6.07h-.05l.19,4.95V82.09h-3.55V51.27h4.62l12.84,20.55L466,78h0l-.18-5V51.27h3.55Z"/><path d="M502,55.29q4.11,4,4.11,11.39T502,78.08q-4.11,4-11.39,4h-9.95V51.27h9.95Q497.9,51.27,502,55.29Zm-2.78,20.15q3-3.15,3-8.76t-3-8.75q-3-3.15-8.24-3.15h-6.58V78.59H491Q496.27,78.59,499.23,75.44Z"/><path d="M531.81,73.55h-14l-3.26,8.54h-3.93l12-30.82h4.44l12,30.82h-4Zm-1.36-3.5L526.3,59.12l-1.45-4.3h-.1L523.4,59l-4.2,11.07Z"/><path d="M563.94,54.78H553.19V82.09h-3.73V54.78H538.72V51.27h25.22Z"/><path d="M575.38,82.09h-3.74V51.27h3.74Z"/><path d="M606.62,52.74a13,13,0,0,1,5,5.51,19,19,0,0,1,1.75,8.43,18.91,18.91,0,0,1-1.75,8.43,12.92,12.92,0,0,1-5,5.51,15.72,15.72,0,0,1-15.13,0,12.88,12.88,0,0,1-5-5.51,19,19,0,0,1-1.75-8.43,19.11,19.11,0,0,1,1.75-8.43,12.94,12.94,0,0,1,5-5.51,15.79,15.79,0,0,1,15.13,0ZM591.46,57.6c-1.85,2.2-2.78,5.22-2.78,9.08s.93,6.89,2.78,9.09a10.4,10.4,0,0,0,15.18,0q2.77-3.3,2.78-9.09c0-3.86-.93-6.88-2.78-9.08a10.4,10.4,0,0,0-15.18,0Z"/><path d="M646.92,82.09h-4.63L629.41,61.45l-3.27-6.07h0l.19,4.95V82.09h-3.55V51.27h4.62l12.84,20.55L643.51,78h0l-.19-5V51.27h3.55Z"/><path class="cls-1" d="M108,108.12A63.31,63.31,0,1,0,18.5,108,63.31,63.31,0,0,0,108,108.12Z"/><path class="cls-2" d="M18.58,18.5A63.31,63.31,0,1,0,108,108.12"/><polygon class="cls-3" points="101 32.06 101 95.28 66.06 32.06 101 32.06"/><polygon class="cls-4" points="101.02 32.06 84.45 32.08 101.02 95.23 101.02 32.06"/><polygon class="cls-4" points="30.93 100.63 94.15 100.63 30.93 65.69 30.93 100.63"/><polygon class="cls-3" points="30.93 100.65 30.95 84.08 94.11 100.64 30.93 100.65"/><polygon class="cls-3" points="26.02 26.72 26.02 55 92.64 93.34 54.3 26.72 26.02 26.72"/><polyline class="cls-4" points="92.65 93.35 54.31 26.74 26.04 26.74"/></g></g></svg>